<svg width="48" height="49" viewBox="0 0 48 49" fill="none" xmlns="http://www.w3.org/2000/svg">
<g id="Google">
<path id="Vector" d="M16.7212 2.07874C11.9253 3.7425 7.78927 6.90037 4.9207 11.0885C2.05212 15.2766 0.602197 20.2743 0.783888 25.3474C0.965579 30.4204 2.76931 35.3016 5.93014 39.2738C9.09097 43.2459 13.4423 46.0998 18.345 47.4162C22.3197 48.4419 26.484 48.4869 30.48 47.5475C34.0999 46.7344 37.4467 44.9951 40.1925 42.5C43.0503 39.8238 45.1246 36.4193 46.1925 32.6525C47.3532 28.5563 47.5597 24.2485 46.7962 20.06H24.4762V29.3187H37.4025C37.1441 30.7954 36.5905 32.2049 35.7748 33.4626C34.9591 34.7204 33.8979 35.8006 32.655 36.6387C31.0765 37.6829 29.2972 38.3854 27.4312 38.7012C25.5598 39.0492 23.6402 39.0492 21.7687 38.7012C19.8719 38.3091 18.0776 37.5262 16.5 36.4025C13.9655 34.6084 12.0625 32.0597 11.0625 29.12C10.0455 26.1252 10.0455 22.8785 11.0625 19.8837C11.7743 17.7846 12.9511 15.8733 14.505 14.2925C16.2832 12.4503 18.5345 11.1335 21.0118 10.4865C23.4892 9.83958 26.0968 9.88748 28.5487 10.625C30.4641 11.213 32.2157 12.2403 33.6637 13.625C35.1212 12.175 36.5762 10.7212 38.0287 9.26374C38.7787 8.47999 39.5962 7.73374 40.335 6.93124C38.1246 4.87428 35.53 3.27371 32.7 2.22124C27.5464 0.349955 21.9074 0.299666 16.7212 2.07874Z" fill="white"/>
<path id="Vector_2" d="M16.7212 2.07873C21.907 0.298448 27.5459 0.347413 32.7 2.21748C35.5305 3.2771 38.1239 4.88538 40.3312 6.94998C39.5812 7.75248 38.79 8.50248 38.025 9.28248C36.57 10.735 35.1162 12.1825 33.6637 13.625C32.2156 12.2402 30.4641 11.213 28.5487 10.625C26.0976 9.88489 23.49 9.83421 21.012 10.4785C18.534 11.1228 16.2814 12.4372 14.5012 14.2775C12.9473 15.8582 11.7706 17.7695 11.0587 19.8687L3.28497 13.85C6.0675 8.33209 10.8853 4.11132 16.7212 2.07873Z" fill="#E33629"/>
<path id="Vector_3" d="M1.2225 19.8125C1.64033 17.7417 2.33401 15.7363 3.285 13.85L11.0587 19.8837C10.0418 22.8785 10.0418 26.1252 11.0587 29.12C8.46875 31.12 5.8775 33.13 3.285 35.15C0.904312 30.4112 0.178244 25.0119 1.2225 19.8125Z" fill="#F8BD00"/>
<path id="Vector_4" d="M24.4763 20.0563H46.7963C47.5598 24.2448 47.3532 28.5525 46.1925 32.6488C45.1247 36.4156 43.0503 39.8201 40.1925 42.4963C37.6838 40.5388 35.1638 38.5963 32.655 36.6388C33.8988 35.7998 34.9604 34.7184 35.7762 33.4593C36.592 32.2002 37.1451 30.7893 37.4025 29.3113H24.4763C24.4725 26.2288 24.4763 23.1425 24.4763 20.0563Z" fill="#587DBD"/>
<path id="Vector_5" d="M3.28125 35.15C5.87375 33.15 8.465 31.14 11.055 29.12C12.057 32.0607 13.9628 34.6096 16.5 36.4025C18.0825 37.521 19.8807 38.2975 21.78 38.6825C23.6515 39.0305 25.571 39.0305 27.4425 38.6825C29.3085 38.3666 31.0878 37.6641 32.6663 36.62C35.175 38.5775 37.695 40.52 40.2038 42.4775C37.4583 44.974 34.1116 46.7145 30.4912 47.5287C26.4953 48.4681 22.331 48.4231 18.3563 47.3975C15.2126 46.5581 12.2763 45.0785 9.73125 43.0512C7.03748 40.9126 4.83733 38.2174 3.28125 35.15Z" fill="#319F43"/>
</g>
</svg>
