<svg width="142" height="51" viewBox="0 0 142 51" fill="none" xmlns="http://www.w3.org/2000/svg">
<g clip-path="url(#clip0_53_4672)">
<path d="M2.49219 36.8112C2.98698 36.6289 3.52083 36.4987 4.09375 36.4206C4.66667 36.3294 5.22005 36.2448 5.75391 36.1667V12.6706L2.60938 12.1237C2.58333 12.0586 2.57031 11.9544 2.57031 11.8112C2.57031 11.6549 2.57031 11.5312 2.57031 11.4401C2.57031 11.2448 2.59635 11.043 2.64844 10.8346C2.70052 10.6263 2.7526 10.4766 2.80469 10.3854H13.9766C15.5521 10.3854 16.8932 10.5221 18 10.7956C19.1198 11.069 20.0247 11.4857 20.7148 12.0456C21.4049 12.5924 21.9062 13.2825 22.2188 14.1159C22.5443 14.9492 22.707 15.9323 22.707 17.0651C22.707 17.7812 22.6159 18.4713 22.4336 19.1354C22.2513 19.7864 21.9844 20.3919 21.6328 20.9518C21.2812 21.5117 20.8581 22.0065 20.3633 22.4362C19.8685 22.8659 19.3086 23.2109 18.6836 23.4713C20.6107 23.7578 22.0755 24.4739 23.0781 25.6198C24.0938 26.7656 24.6016 28.3542 24.6016 30.3854C24.6016 31.8307 24.3867 33.0742 23.957 34.1159C23.5273 35.1575 22.8633 36.0169 21.9648 36.694C21.0794 37.3711 19.9466 37.8724 18.5664 38.1979C17.1862 38.5104 15.5521 38.6667 13.6641 38.6667H2.66797L2.49219 36.8112ZM12.6484 22.8854H13.3711C14.5039 22.8463 15.4414 22.6641 16.1836 22.3385C16.9258 22.013 17.5117 21.5963 17.9414 21.0885C18.3841 20.5677 18.6901 19.9818 18.8594 19.3307C19.0417 18.6667 19.1328 17.9766 19.1328 17.2604C19.1328 16.4661 19.0286 15.776 18.8203 15.1901C18.625 14.6042 18.2604 14.1224 17.7266 13.7448C17.2057 13.3672 16.4896 13.0872 15.5781 12.9049C14.6797 12.7226 13.5273 12.6315 12.1211 12.6315L9.26953 12.6706V22.9831L12.6484 22.8854ZM10.1875 36.362C10.8646 36.401 11.418 36.4271 11.8477 36.4401C12.2904 36.4531 12.6549 36.4661 12.9414 36.4792C13.2279 36.4922 13.4622 36.4987 13.6445 36.4987C13.8268 36.4987 13.9961 36.4987 14.1523 36.4987C15.4154 36.4857 16.4766 36.375 17.3359 36.1667C18.1953 35.9453 18.8854 35.6068 19.4062 35.151C19.9401 34.6823 20.3177 34.0833 20.5391 33.3542C20.7734 32.625 20.8906 31.7331 20.8906 30.6784V30.3854C20.8906 29.2786 20.7083 28.3737 20.3438 27.6706C19.9792 26.9674 19.4388 26.4141 18.7227 26.0104C18.0195 25.6068 17.1471 25.3333 16.1055 25.1901C15.0768 25.0338 13.8919 24.9557 12.5508 24.9557L9.26953 25.0534V36.2838L10.1875 36.362Z" fill="#FFFCF2"/>
<path d="M39.8333 19.3333V12.3333L45.1666 12.3333V18.6666" stroke="#FFFCF2" stroke-linejoin="round"/>
<path d="M35.8333 26.3333V19.9746L49.1666 18.3333V25" stroke="#FFFCF2" stroke-linejoin="round"/>
<path d="M33.8333 33V27L51.1666 25V31" stroke="#FFFCF2" stroke-linejoin="round"/>
<path d="M53.1666 39H31.8333V33.6666L53.1666 31V39Z" fill="#019EE3" stroke="#FFFCF2" stroke-linejoin="round"/>
<path d="M60.4922 36.8112C60.987 36.6289 61.5208 36.4987 62.0938 36.4206C62.6667 36.3294 63.2201 36.2448 63.7539 36.1667V12.6706L60.6094 12.1237C60.5833 12.0586 60.5703 11.9544 60.5703 11.8112C60.5703 11.6549 60.5703 11.5312 60.5703 11.4401C60.5703 11.2448 60.5964 11.043 60.6484 10.8346C60.7005 10.6263 60.7526 10.4766 60.8047 10.3854H71.9766C73.5521 10.3854 74.8932 10.5221 76 10.7956C77.1198 11.069 78.0247 11.4857 78.7148 12.0456C79.4049 12.5924 79.9062 13.2825 80.2188 14.1159C80.5443 14.9492 80.707 15.9323 80.707 17.0651C80.707 17.7812 80.6159 18.4713 80.4336 19.1354C80.2513 19.7864 79.9844 20.3919 79.6328 20.9518C79.2812 21.5117 78.8581 22.0065 78.3633 22.4362C77.8685 22.8659 77.3086 23.2109 76.6836 23.4713C78.6107 23.7578 80.0755 24.4739 81.0781 25.6198C82.0938 26.7656 82.6016 28.3542 82.6016 30.3854C82.6016 31.8307 82.3867 33.0742 81.957 34.1159C81.5273 35.1575 80.8633 36.0169 79.9648 36.694C79.0794 37.3711 77.9466 37.8724 76.5664 38.1979C75.1862 38.5104 73.5521 38.6667 71.6641 38.6667H60.668L60.4922 36.8112ZM70.6484 22.8854H71.3711C72.5039 22.8463 73.4414 22.6641 74.1836 22.3385C74.9258 22.013 75.5117 21.5963 75.9414 21.0885C76.3841 20.5677 76.6901 19.9818 76.8594 19.3307C77.0417 18.6667 77.1328 17.9766 77.1328 17.2604C77.1328 16.4661 77.0286 15.776 76.8203 15.1901C76.625 14.6042 76.2604 14.1224 75.7266 13.7448C75.2057 13.3672 74.4896 13.0872 73.5781 12.9049C72.6797 12.7226 71.5273 12.6315 70.1211 12.6315L67.2695 12.6706V22.9831L70.6484 22.8854ZM68.1875 36.362C68.8646 36.401 69.418 36.4271 69.8477 36.4401C70.2904 36.4531 70.6549 36.4661 70.9414 36.4792C71.2279 36.4922 71.4622 36.4987 71.6445 36.4987C71.8268 36.4987 71.9961 36.4987 72.1523 36.4987C73.4154 36.4857 74.4766 36.375 75.3359 36.1667C76.1953 35.9453 76.8854 35.6068 77.4062 35.151C77.9401 34.6823 78.3177 34.0833 78.5391 33.3542C78.7734 32.625 78.8906 31.7331 78.8906 30.6784V30.3854C78.8906 29.2786 78.7083 28.3737 78.3438 27.6706C77.9792 26.9674 77.4388 26.4141 76.7227 26.0104C76.0195 25.6068 75.1471 25.3333 74.1055 25.1901C73.0768 25.0338 71.8919 24.9557 70.5508 24.9557L67.2695 25.0534V36.2838L68.1875 36.362ZM90.4297 36.9088C90.9245 36.7266 91.4583 36.6029 92.0312 36.5378C92.6042 36.4596 93.1576 36.388 93.6914 36.3229V12.7292L90.5469 12.1237C90.5208 12.0586 90.5078 11.9544 90.5078 11.8112C90.5078 11.6549 90.5078 11.5312 90.5078 11.4401C90.5078 11.2448 90.5339 11.043 90.5859 10.8346C90.638 10.6263 90.6901 10.4766 90.7422 10.3854H110.449L110.723 10.6979C110.736 11.1927 110.716 11.7656 110.664 12.4167C110.612 13.0547 110.54 13.6927 110.449 14.3307C110.371 14.9687 110.286 15.5612 110.195 16.1081C110.104 16.6419 110.02 17.0521 109.941 17.3385C109.642 17.4036 109.303 17.4362 108.926 17.4362C108.561 17.4232 108.19 17.3906 107.812 17.3385L107.461 12.6706H97.207V22.8854L106.934 22.7682C106.999 23.1458 107.012 23.5755 106.973 24.0573C106.934 24.5391 106.882 24.9883 106.816 25.4049L97.207 25.1901V36.3229H108.379L109.668 31.9674C110.046 31.9414 110.423 31.9414 110.801 31.9674C111.191 31.9935 111.536 32.0521 111.836 32.1432C111.823 32.5989 111.797 33.1068 111.758 33.6667C111.732 34.2266 111.693 34.793 111.641 35.3659C111.589 35.9258 111.536 36.4661 111.484 36.987C111.432 37.5078 111.38 37.9635 111.328 38.3542L110.918 38.6667H90.6055L90.4297 36.9088ZM119.234 36.9088C119.729 36.7266 120.263 36.6029 120.836 36.5378C121.409 36.4596 121.962 36.388 122.496 36.3229V12.7292L119.312 12.1237C119.286 11.9544 119.28 11.8112 119.293 11.694C119.306 11.5638 119.312 11.4466 119.312 11.3424C119.339 11.1211 119.365 10.9323 119.391 10.776C119.417 10.6068 119.449 10.4766 119.488 10.3854H129.703L129.879 12.026C129.658 12.1042 129.378 12.1758 129.039 12.2409C128.714 12.306 128.368 12.3711 128.004 12.4362C127.652 12.5013 127.294 12.5599 126.93 12.612C126.578 12.651 126.272 12.6901 126.012 12.7292V36.3229H135.934L137.32 31.6549C137.698 31.6289 138.076 31.6289 138.453 31.6549C138.844 31.681 139.189 31.7396 139.488 31.8307C139.475 32.2864 139.449 32.8138 139.41 33.4128C139.384 33.9987 139.345 34.5976 139.293 35.2096C139.241 35.8086 139.189 36.388 139.137 36.9479C139.085 37.4948 139.039 37.9635 139 38.3542L138.57 38.6667H119.41L119.234 36.9088Z" fill="#FFFCF2"/>
</g>
<defs>
<clipPath id="clip0_53_4672">
<rect width="141" height="50" fill="white" transform="translate(0.5 0.666656)"/>
</clipPath>
</defs>
</svg>
