<svg width="48" height="49" viewBox="0 0 48 49" fill="none" xmlns="http://www.w3.org/2000/svg">
<g id="LinkedIn">
<path id="Vector" d="M43.5 1.62499H4.5C3.61512 1.61598 2.7628 1.95838 2.13007 2.57705C1.49734 3.19572 1.13588 4.04013 1.125 4.92499V44.0825C1.13785 44.966 1.50017 45.8085 2.13269 46.4256C2.7652 47.0426 3.6164 47.384 4.5 47.375H43.5C44.3849 47.382 45.2367 47.0384 45.8691 46.4194C46.5015 45.8003 46.8631 44.9561 46.875 44.0712V4.91374C46.8592 4.03147 46.4958 3.19109 45.8639 2.57526C45.2319 1.95943 44.3824 1.61793 43.5 1.62499Z" fill="#0076B2"/>
<path id="Vector_2" d="M7.89748 18.7737H14.6887V40.625H7.89748V18.7737ZM11.295 7.89874C12.0739 7.89874 12.8353 8.12977 13.4829 8.56259C14.1305 8.99542 14.6352 9.61059 14.9331 10.3303C15.231 11.05 15.3088 11.8419 15.1565 12.6058C15.0043 13.3697 14.6289 14.0713 14.0779 14.6218C13.5268 15.1723 12.8249 15.547 12.0609 15.6985C11.2968 15.85 10.505 15.7715 9.78557 15.4729C9.06615 15.1743 8.45146 14.6691 8.01925 14.0211C7.58704 13.3731 7.35674 12.6114 7.35748 11.8325C7.35848 10.7889 7.77376 9.7883 8.51208 9.05068C9.25039 8.31307 10.2513 7.89874 11.295 7.89874ZM18.9487 18.7737H25.4587V21.7737H25.5487C26.4562 20.0562 28.6687 18.245 31.9725 18.245C38.85 18.23 40.125 22.7562 40.125 28.625V40.625H33.3337V29.9937C33.3337 27.4625 33.2887 24.2037 29.805 24.2037C26.3212 24.2037 25.7287 26.9637 25.7287 29.8287V40.625H18.9487V18.7737Z" fill="white"/>
</g>
</svg>
