<svg width="48" height="49" viewBox="0 0 48 49" fill="none" xmlns="http://www.w3.org/2000/svg">
<g id="Facebook">
<path id="Vector" d="M43.7438 2.31128H4.26003C2.90762 2.31128 1.81128 3.40762 1.81128 4.76003V44.2438C1.81128 45.5962 2.90762 46.6925 4.26003 46.6925H43.7438C45.0962 46.6925 46.1925 45.5962 46.1925 44.2438V4.76003C46.1925 3.40762 45.0962 2.31128 43.7438 2.31128Z" fill="#3D5A98"/>
<path id="Vector_2" d="M32.43 46.6888V29.5025H38.1975L39.06 22.805H32.43V18.53C32.43 16.5913 32.97 15.2675 35.7487 15.2675H39.2962V9.26752C37.5784 9.08882 35.8521 9.00369 34.125 9.01252C29.0175 9.01252 25.5 12.125 25.5 17.8663V22.805H19.7325V29.5025H25.5V46.6888H32.43Z" fill="white"/>
</g>
</svg>
