<svg width="48" height="49" viewBox="0 0 48 49" fill="none" xmlns="http://www.w3.org/2000/svg">
<g id="Apple">
<path id="Vector" d="M43.3683 37.9065C42.6424 39.5835 41.7831 41.1271 40.7876 42.5464C39.4307 44.4811 38.3196 45.8204 37.4633 46.564C36.1359 47.7848 34.7137 48.41 33.1909 48.4454C32.0976 48.4454 30.7791 48.1344 29.2444 47.5032C27.7045 46.8751 26.2895 46.5639 24.9956 46.5639C23.6386 46.5639 22.1832 46.875 20.6266 47.5032C19.0675 48.1343 17.8116 48.4632 16.8513 48.4958C15.3908 48.558 13.9352 47.915 12.4822 46.5639C11.5549 45.7551 10.3949 44.3685 9.00524 42.4041C7.51433 40.3064 6.28865 37.8739 5.32827 35.1006C4.29993 32.1051 3.7843 29.2044 3.7843 26.3963C3.7843 23.1794 4.47936 20.4051 5.87165 18.0801C6.9659 16.2126 8.42155 14.7395 10.2433 13.658C12.0651 12.5765 14.0337 12.0254 16.1536 11.9902C17.3136 11.9902 18.8347 12.3489 20.725 13.0541C22.6101 13.7617 23.8204 14.1205 24.351 14.1205C24.7477 14.1205 26.0923 13.701 28.3716 12.8646C30.5271 12.0889 32.3464 11.7677 33.8366 11.8943C37.875 12.2202 40.9089 13.8121 42.9267 16.6802C39.315 18.8686 37.5284 21.9337 37.5639 25.8657C37.5966 28.9284 38.7076 31.4771 40.8912 33.5007C41.8807 34.44 42.986 35.1659 44.2155 35.6814C43.9489 36.4546 43.6674 37.1953 43.3682 37.9065H43.3683ZM34.1063 1.46016C34.1063 3.86072 33.2293 6.1021 31.4812 8.17669C29.3717 10.643 26.8201 12.0681 24.0531 11.8433C24.0161 11.5414 23.9975 11.2377 23.9974 10.9336C23.9974 8.62903 25.0006 6.16275 26.7821 4.14628C27.6716 3.12535 28.8028 2.27635 30.1746 1.5991C31.5435 0.931972 32.8383 0.562972 34.056 0.499878C34.0915 0.820784 34.1064 1.14169 34.1064 1.46007L34.1063 1.46016Z" fill="black"/>
</g>
</svg>
